<svg width="22" height="22" viewBox="0 0 24 24" fill="none" xmlns="http://www.w3.org/2000/svg">
  <!-- Instacart Carrot Logo - Full Color -->
  <!-- Orange Carrot Body -->
  <path d="M12 3C9.5 3 7 5.5 7 9C7 12.5 9.5 20 12 20C14.5 20 17 12.5 17 9C17 5.5 14.5 3 12 3Z" fill="#FF7009"/>
  <!-- Green Leaves -->
  <path d="M11 2C11 2 9 2 9 4C9 6 11 6 11 6V2Z" fill="#0AAD0A"/>
  <path d="M13 2C13 2 15 2 15 4C15 6 13 6 13 6V2Z" fill="#0AAD0A"/>
  <path d="M10.5 3C10.5 3 8.5 3.5 8.5 5C8.5 6.5 10.5 6.5 10.5 6.5V3Z" fill="#43B02A"/>
  <path d="M13.5 3C13.5 3 15.5 3.5 15.5 5C15.5 6.5 13.5 6.5 13.5 6.5V3Z" fill="#43B02A"/>
  <!-- Carrot Accent Lines -->
  <path d="M10 10C10 10 10.5 10 10.5 10.5C10.5 11 10 11 10 11" stroke="#E65200" stroke-width="0.5" stroke-linecap="round"/>
  <path d="M10 13C10 13 10.5 13 10.5 13.5C10.5 14 10 14 10 14" stroke="#E65200" stroke-width="0.5" stroke-linecap="round"/>
  <path d="M10 16C10 16 10.5 16 10.5 16.5C10.5 17 10 17 10 17" stroke="#E65200" stroke-width="0.5" stroke-linecap="round"/>
</svg>


